<?xml version="1.0" encoding="UTF-8"?>
<svg id="Layer_1" data-name="Layer 1" xmlns="http://www.w3.org/2000/svg" viewBox="0 0 991.24 670.34">
  <defs>
    <style>
      .cls-1, .cls-2 {
        fill: #319684;
      }

      .cls-3 {
        fill: none;
        stroke: #1b5e62;
        stroke-miterlimit: 22.93;
        stroke-width: 1.64px;
      }

      .cls-4 {
        fill: #1b5e62;
      }

      .cls-2 {
        fill-rule: evenodd;
      }
    </style>
  </defs>
  <path class="cls-1" d="M545.52,170.82c-10.76,21.09-27,33.54-45.99,36.28-37.13,5.7-67.5-13.71-78.89-50.84-11.39-37.34,1.69-79.95,37.76-87.75,27.63-5.91,52.74,12.23,68.14,36.7h1.48l6.33-24.05c-17.93-11.81-31.64-17.72-54.42-17.72-41.77,0-79.53,33.75-79.53,75.52s36.07,75.52,77.63,75.52c37.34,0,57.59-19.41,68.98-43.03l-1.48-.63h0Z"/>
  <path class="cls-1" d="M578.85,199.3v-87.54h-1.48l-19.83,4.64v1.48c4.01.63,4.64,2.74,4.64,10.13v71.3c0,7.38-1.48,10.55-4.64,12.45v1.48h26.16v-1.48c-3.37-1.9-4.85-5.06-4.85-12.45h0ZM569.99,94.67c5.48,0,9.91-4.43,9.91-9.91s-4.43-9.91-9.91-9.91-9.91,4.43-9.91,9.91,4.43,9.91,9.91,9.91h0Z"/>
  <path class="cls-1" d="M673.14,175.88c-3.8,16.24-10.76,32.91-24.68,34.81-17.93,2.32-22.99-11.81-22.99-30.17v-67.08h24.89v-1.69h-46.62c12.66-.63,28.69-12.66,28.69-28.9h-16.66c0,10.13-1.48,28.9-19.41,28.9v1.69h12.45v63.92c0,24.89,11.6,37.13,30.38,37.13,22.15,0,31.01-18.35,35.02-38.18l-1.05-.42h0Z"/>
  <path class="cls-1" d="M768.91,113.44v-1.69h-24.89v1.69c9.49,7.8,6.96,19.41-.84,38.81l-17.3,43.03-25.1-58.64c-4.85-11.81-6.54-17.51-1.27-23.2v-1.69h-32.27v1.69c10.13,8.44,14.56,17.51,23.42,38.18l27,63.49c-6.96,15.61-15.61,29.53-26.58,30.8-11.6,1.27-13.92-14.98-11.81-26.79l-1.27-1.05-16.45,14.98c5.27,9.7,13.5,14.98,24.89,14.98,16.66,0,26.16-15.82,33.75-34.81,7.59-18.77,24.47-60.75,24.47-60.75,7.81-19.41,15.19-29.74,24.26-39.02h0Z"/>
  <path class="cls-4" d="M455.23,264.2h-52.74v1.69c3.16,1.9,4.64,5.06,4.64,12.45v119.61c0,7.38-1.48,10.55-4.64,12.45v1.48h52.74c48.94,0,84.59-32.06,84.59-73.83s-35.65-73.83-84.59-73.83h0ZM455.23,410.38h-31.43v-144.5h31.43c42.19,0,67.92,33.33,67.92,72.14s-25.73,72.35-67.92,72.35h0Z"/>
  <path class="cls-4" d="M633.9,343.72h19.62c-2.95-25.52-27.63-34.17-45.56-33.33-23.2,1.27-56.32,17.09-55.27,53.58.84,34.81,28.9,49.15,58.01,49.15s43.24-19.83,44.51-34.81c1.69-19.2-9.28-31.43-21.3-34.6h0ZM598.46,312.93c20.67-4.01,37.13,10.76,39.87,29.11h-67.29c3.8-14.34,13.08-26.37,27.42-29.11h0ZM653.31,378.74c-2.11,16.45-17.93,28.9-36.07,29.74-21.52.84-37.34-8.86-45.14-31.01-3.59-10.13-4.22-22.57-1.48-33.75h54.63c16.03,0,30.59,13.08,28.06,35.02h0Z"/>
  <path class="cls-4" d="M768.48,397.94c-.84-7.8-2.95-29.95-5.06-50.42-2.53-25.31-17.3-37.13-34.59-37.13-27.42,0-34.6,28.69-37.34,52.31v-52.31h-1.48l-19.83,4.64v1.48c4.01.63,4.64,2.74,4.64,10.13v71.3c0,7.38-1.48,10.55-4.64,12.45v1.48h26.16v-1.48c-3.37-1.9-4.85-5.06-4.85-12.45v-17.3c0-17.72,4.43-61.81,28.06-66.45,18.14-3.59,25.95,14.34,27.42,30.17,1.05,10.97,4.22,46.62,4.85,53.58.63,6.96-.21,10.55-3.59,12.45v1.48h26.16v-1.48c-3.16-1.9-5.06-4.85-5.91-12.45h0Z"/>
  <path class="cls-4" d="M857.5,374.52c-3.8,16.24-10.76,32.91-24.68,34.81-17.93,2.32-22.99-11.81-22.99-30.17v-67.08h24.89v-1.69h-46.62c12.66-.63,28.69-12.66,28.69-28.9h-16.66c0,10.13-1.48,28.9-19.41,28.9v1.69h12.45v63.92c0,24.89,11.6,37.13,30.38,37.13,22.15,0,31.01-18.35,35.02-38.18l-1.05-.42h0Z"/>
  <path class="cls-4" d="M950.53,410.38c-3.16-1.9-4.64-5.06-4.64-12.45v-52.31c0-25.95-18.56-35.23-36.07-35.23-28.27,0-34.81,26.16-29.32,38.39-16.24,6.75-29.11,19.41-25.52,40.92,2.74,15.19,19.62,23.42,36.92,23.42,20.25,0,31.85-12.23,37.34-30.8v29.53h21.31v-1.48h0ZM907.92,312.51c14.98,0,21.3,14.13,21.3,30.17v1.48c-3.59-1.05-7.8-1.9-12.66-1.9-9.91,0-22.57,1.48-33.96,5.7-6.33-17.09,6.33-35.44,25.31-35.44h0ZM896.95,410.38c-10.55.63-22.78-6.33-25.52-17.72-9.07-37.13,22.15-48.52,45.14-48.52,6.54,0,11.6,1.48,12.66,1.9v32.48c-4.22,15.19-13.92,30.8-32.27,31.85h0Z"/>
  <path class="cls-4" d="M986.6,397.94v-138.17h-1.48l-19.83,4.43v1.69c4.01.63,4.64,2.74,4.64,10.13v121.92c0,7.38-1.48,10.55-4.64,12.45v1.48h25.95v-1.48c-3.16-1.9-4.64-5.06-4.64-12.45h0Z"/>
  <path class="cls-1" d="M545.52,568.1c-10.76,21.09-27,33.54-45.99,36.28-37.13,5.7-67.5-13.71-78.89-50.84-11.39-37.34,1.69-79.95,37.76-87.75,27.63-5.91,52.74,12.24,68.14,36.7h1.48l6.33-24.05c-17.93-11.81-31.64-17.72-54.42-17.72-41.77,0-79.53,33.75-79.53,75.52s36.07,75.52,77.63,75.52c37.34,0,57.59-19.41,68.98-43.03l-1.48-.63h0Z"/>
  <path class="cls-1" d="M653.73,609.02c-3.16-1.9-4.64-5.06-4.64-12.45v-52.31c0-25.95-18.56-35.23-36.07-35.23-28.27,0-34.81,26.16-29.32,38.39-16.24,6.75-29.11,19.41-25.52,40.92,2.74,15.19,19.62,23.42,36.92,23.42,20.25,0,31.85-12.24,37.34-30.8v29.53h21.31v-1.48h0ZM611.12,511.15c14.98,0,21.3,14.13,21.3,30.17v1.48c-3.59-1.05-7.8-1.9-12.66-1.9-9.91,0-22.57,1.48-33.96,5.7-6.33-17.09,6.33-35.44,25.31-35.44h0ZM600.15,609.02c-10.55.63-22.78-6.33-25.52-17.72-9.07-37.13,22.15-48.52,45.14-48.52,6.54,0,11.6,1.48,12.66,1.9v32.49c-4.22,15.19-13.92,30.8-32.27,31.85h0Z"/>
  <path class="cls-1" d="M720.39,509.04c-22.36,0-28.27,31.01-30.38,56.53v-56.53h-1.69l-19.83,4.64v1.48c4.22.63,4.85,2.74,4.85,10.13v71.3c0,7.38-1.48,10.55-4.85,12.45v1.48h26.16v-1.48c-3.16-1.9-4.64-5.06-4.64-12.45v-8.23c0-17.93,2.74-72.35,23.41-75.52,11.39-1.69,17.3,13.92,17.72,25.95l1.48.84,12.87-18.14c-7.17-8.44-13.71-12.45-25.1-12.45h0Z"/>
  <path class="cls-1" d="M831.13,542.37h19.62c-2.95-25.52-27.63-34.17-45.56-33.33-23.2,1.27-56.32,17.09-55.27,53.58.84,34.81,28.9,49.15,58.01,49.15s43.24-19.83,44.51-34.81c1.69-19.2-9.28-31.43-21.3-34.6h0ZM795.7,511.57c20.67-4.01,37.13,10.76,39.87,29.11h-67.29c3.8-14.34,13.08-26.37,27.42-29.11h0ZM850.54,577.38c-2.11,16.45-17.93,28.9-36.07,29.74-21.52.84-37.34-8.86-45.14-31.01-3.59-10.13-4.22-22.57-1.48-33.75h54.63c16.03,0,30.59,13.08,28.06,35.02h0Z"/>
  <path class="cls-3" d="M168.86.82h0c92.42,0,168.04,75.62,168.04,168.04v332.63c0,92.42-75.62,168.04-168.04,168.04h0C76.43,669.52.82,593.9.82,501.48V168.86C.82,76.43,76.43.82,168.86.82h0Z"/>
  <path class="cls-4" d="M141.35,203.32H47.12v3.02c5.65,3.39,8.29,9.05,8.29,22.24v213.71c0,13.19-2.64,18.85-8.29,22.24v2.64h94.23c87.44,0,151.14-57.29,151.14-131.92s-63.7-131.92-151.14-131.92h0ZM141.35,464.52h-56.16V206.33h56.16c75.38,0,121.37,59.55,121.37,128.9s-45.98,129.28-121.37,129.28h0Z"/>
  <path class="cls-2" d="M247.88,181.84c-7.84,15.38-18.34,26.59-30.6,33.29l3.88,1.61c12.85-8.65,21.89-20.81,28.35-34.2l-1.63-.7h0ZM195.27,222.1c-40.02,5.31-72.64-16.04-84.99-56.3-12.55-41.14,1.86-88.09,41.61-96.69,30.45-6.51,58.11,13.48,75.08,40.44h1.63l6.97-26.5c-19.76-13.02-34.87-19.52-59.97-19.52-46.02,0-87.63,37.19-87.63,83.21s39.75,83.21,85.54,83.21c10.78,0,20.27-1.47,28.63-4.11l-6.87-3.75h0Z"/>
  <path class="cls-2" d="M251.74,559.18c-11.85,23.24-29.75,36.96-50.67,39.98-40.91,6.28-74.38-15.11-86.93-56.02-7.88-25.81-5.13-53.91,7.82-73.39h-8.1c-13.55,14.57-22.03,33.55-22.03,54.33,0,46.02,39.75,83.21,85.54,83.21,41.14,0,63.45-21.38,76.01-47.42l-1.63-.7h0ZM127.06,463.12c7.29-8.17,16.87-14.12,28.68-16.67,30.45-6.51,58.11,13.48,75.08,40.44h1.63l6.97-26.5c-19.76-13.02-34.87-19.52-59.97-19.52-21.92,0-42.83,8.44-58.73,22.25h6.34Z"/>
</svg>