<?xml version="1.0" encoding="UTF-8"?>
<svg id="Layer_1" data-name="Layer 1" xmlns="http://www.w3.org/2000/svg" viewBox="0 0 315.97 214.41">
  <defs>
    <style>
      .cls-1 {
        fill-rule: evenodd;
      }

      .cls-1, .cls-2 {
        fill: #fff;
        stroke-width: 0px;
      }

      .cls-3 {
        fill: none;
        stroke: #fff;
        stroke-miterlimit: 22.93;
        stroke-width: 1.64px;
      }
    </style>
  </defs>
  <path class="cls-1" d="M80.66,178.49c-3.77,7.4-9.47,11.76-16.12,12.72-13.02,2-23.67-4.81-27.66-17.82-2.51-8.21-1.63-17.15,2.49-23.35h-2.58c-4.31,4.64-7.01,10.68-7.01,17.29,0,14.64,12.65,26.48,27.22,26.48,13.09,0,20.19-6.8,24.18-15.09l-.52-.22h0ZM40.99,147.92c2.32-2.6,5.37-4.49,9.13-5.3,9.69-2.07,18.49,4.29,23.89,12.87h.52l2.22-8.43c-6.29-4.14-11.09-6.21-19.08-6.21-6.97,0-13.63,2.69-18.69,7.08h2.02Z"/>
  <path class="cls-2" d="M174.14,54.91c-3.42,6.71-8.59,10.67-14.63,11.54-11.81,1.81-21.48-4.36-25.1-16.18-3.62-11.88.54-25.44,12.01-27.92,8.79-1.88,16.78,3.89,21.68,11.68h.47l2.01-7.65c-5.71-3.76-10.07-5.64-17.32-5.64-13.29,0-25.3,10.74-25.3,24.03s11.48,24.03,24.7,24.03c11.88,0,18.32-6.18,21.95-13.69l-.47-.2h0Z"/>
  <path class="cls-2" d="M184.74,63.97v-27.86h-.47l-6.31,1.48v.47c1.27.2,1.48.87,1.48,3.22v22.69c0,2.35-.47,3.36-1.48,3.96v.47h8.32v-.47c-1.07-.6-1.54-1.61-1.54-3.96h0ZM181.92,30.68c1.75,0,3.15-1.41,3.15-3.15s-1.41-3.15-3.15-3.15-3.15,1.41-3.15,3.15,1.41,3.15,3.15,3.15h0Z"/>
  <path class="cls-2" d="M214.75,56.52c-1.21,5.17-3.42,10.47-7.85,11.08-5.71.74-7.32-3.76-7.32-9.6v-21.34h7.92v-.54h-14.83c4.03-.2,9.13-4.03,9.13-9.2h-5.3c0,3.22-.47,9.2-6.18,9.2v.54h3.96v20.34c0,7.92,3.69,11.81,9.67,11.81,7.05,0,9.87-5.84,11.14-12.15l-.34-.13h0Z"/>
  <path class="cls-2" d="M245.22,36.65v-.54h-7.92v.54c3.02,2.48,2.21,6.18-.27,12.35l-5.5,13.69-7.99-18.66c-1.54-3.76-2.08-5.57-.4-7.38v-.54h-10.27v.54c3.22,2.68,4.63,5.57,7.45,12.15l8.59,20.2c-2.22,4.97-4.97,9.4-8.46,9.8-3.69.4-4.43-4.77-3.76-8.52l-.4-.34-5.24,4.77c1.68,3.09,4.3,4.77,7.92,4.77,5.3,0,8.32-5.03,10.74-11.07,2.42-5.97,7.79-19.33,7.79-19.33,2.48-6.18,4.83-9.46,7.72-12.42h0Z"/>
  <path class="cls-2" d="M145.41,84.62h-16.78v.54c1.01.6,1.48,1.61,1.48,3.96v38.06c0,2.35-.47,3.36-1.48,3.96v.47h16.78c15.57,0,26.92-10.2,26.92-23.49s-11.34-23.49-26.92-23.49h0ZM145.41,131.14h-10v-45.98h10c13.42,0,21.61,10.6,21.61,22.96s-8.19,23.02-21.61,23.02h0Z"/>
  <path class="cls-2" d="M202.26,109.93h6.24c-.94-8.12-8.79-10.87-14.5-10.6-7.38.4-17.92,5.44-17.59,17.05.27,11.07,9.2,15.64,18.46,15.64s13.76-6.31,14.16-11.07c.54-6.11-2.95-10-6.78-11.01h0ZM190.99,100.13c6.58-1.28,11.81,3.42,12.69,9.26h-21.41c1.21-4.56,4.16-8.39,8.73-9.26h0ZM208.44,121.07c-.67,5.24-5.71,9.2-11.48,9.46-6.85.27-11.88-2.82-14.36-9.87-1.14-3.22-1.34-7.18-.47-10.74h17.38c5.1,0,9.73,4.16,8.93,11.14h0Z"/>
  <path class="cls-2" d="M245.09,127.18c-.27-2.48-.94-9.53-1.61-16.04-.81-8.05-5.5-11.81-11.01-11.81-8.73,0-11.01,9.13-11.88,16.65v-16.65h-.47l-6.31,1.48v.47c1.28.2,1.48.87,1.48,3.22v22.69c0,2.35-.47,3.36-1.48,3.96v.47h8.32v-.47c-1.07-.6-1.54-1.61-1.54-3.96v-5.5c0-5.64,1.41-19.67,8.93-21.14,5.77-1.14,8.26,4.56,8.73,9.6.34,3.49,1.34,14.83,1.54,17.05.2,2.21-.07,3.36-1.14,3.96v.47h8.32v-.47c-1.01-.6-1.61-1.54-1.88-3.96h0Z"/>
  <path class="cls-2" d="M273.41,119.73c-1.21,5.17-3.42,10.47-7.85,11.07-5.71.74-7.32-3.76-7.32-9.6v-21.34h7.92v-.54h-14.83c4.03-.2,9.13-4.03,9.13-9.2h-5.3c0,3.22-.47,9.2-6.18,9.2v.54h3.96v20.34c0,7.92,3.69,11.81,9.67,11.81,7.05,0,9.87-5.84,11.14-12.15l-.34-.13h0Z"/>
  <path class="cls-2" d="M303.01,131.14c-1.01-.6-1.48-1.61-1.48-3.96v-16.65c0-8.26-5.91-11.21-11.48-11.21-8.99,0-11.07,8.32-9.33,12.22-5.17,2.15-9.26,6.18-8.12,13.02.87,4.83,6.24,7.45,11.75,7.45,6.44,0,10.14-3.89,11.88-9.8v9.4h6.78v-.47h0ZM289.45,100c4.77,0,6.78,4.5,6.78,9.6v.47c-1.14-.34-2.48-.6-4.03-.6-3.15,0-7.18.47-10.81,1.81-2.01-5.44,2.01-11.28,8.05-11.28h0ZM285.96,131.14c-3.36.2-7.25-2.01-8.12-5.64-2.89-11.81,7.05-15.44,14.36-15.44,2.08,0,3.69.47,4.03.6v10.34c-1.34,4.83-4.43,9.8-10.27,10.14h0Z"/>
  <path class="cls-2" d="M314.49,127.18v-43.96h-.47l-6.31,1.41v.54c1.28.2,1.48.87,1.48,3.22v38.8c0,2.35-.47,3.36-1.48,3.96v.47h8.26v-.47c-1.01-.6-1.48-1.61-1.48-3.96h0Z"/>
  <path class="cls-2" d="M174.14,181.32c-3.42,6.71-8.59,10.67-14.63,11.54-11.81,1.81-21.48-4.36-25.1-16.18-3.62-11.88.54-25.44,12.01-27.92,8.79-1.88,16.78,3.89,21.68,11.68h.47l2.01-7.65c-5.71-3.76-10.07-5.64-17.32-5.64-13.29,0-25.3,10.74-25.3,24.03s11.48,24.03,24.7,24.03c11.88,0,18.32-6.18,21.95-13.69l-.47-.2h0Z"/>
  <path class="cls-2" d="M208.57,194.35c-1.01-.6-1.48-1.61-1.48-3.96v-16.65c0-8.26-5.91-11.21-11.48-11.21-8.99,0-11.08,8.32-9.33,12.22-5.17,2.15-9.26,6.18-8.12,13.02.87,4.83,6.24,7.45,11.75,7.45,6.44,0,10.14-3.89,11.88-9.8v9.4h6.78v-.47h0ZM195.01,163.2c4.77,0,6.78,4.5,6.78,9.6v.47c-1.14-.34-2.48-.6-4.03-.6-3.15,0-7.18.47-10.81,1.81-2.01-5.44,2.01-11.28,8.05-11.28h0ZM191.52,194.35c-3.36.2-7.25-2.01-8.12-5.64-2.89-11.81,7.05-15.44,14.36-15.44,2.08,0,3.69.47,4.03.6v10.34c-1.34,4.83-4.43,9.8-10.27,10.14h0Z"/>
  <path class="cls-2" d="M229.78,162.53c-7.11,0-8.99,9.87-9.67,17.99v-17.99h-.54l-6.31,1.48v.47c1.34.2,1.54.87,1.54,3.22v22.69c0,2.35-.47,3.36-1.54,3.96v.47h8.32v-.47c-1.01-.6-1.48-1.61-1.48-3.96v-2.62c0-5.71.87-23.02,7.45-24.03,3.62-.54,5.5,4.43,5.64,8.26l.47.27,4.09-5.77c-2.28-2.68-4.36-3.96-7.99-3.96h0Z"/>
  <path class="cls-2" d="M265.02,173.14h6.24c-.94-8.12-8.79-10.87-14.5-10.6-7.38.4-17.92,5.44-17.59,17.05.27,11.07,9.2,15.64,18.46,15.64s13.76-6.31,14.16-11.07c.54-6.11-2.95-10-6.78-11.01h0ZM253.74,163.34c6.58-1.28,11.81,3.42,12.69,9.26h-21.41c1.21-4.56,4.16-8.39,8.73-9.26h0ZM271.2,184.28c-.67,5.24-5.71,9.2-11.48,9.46-6.85.27-11.88-2.82-14.36-9.87-1.14-3.22-1.34-7.18-.47-10.74h17.38c5.1,0,9.73,4.16,8.93,11.14h0Z"/>
  <path class="cls-3" d="M54.29.82h0c29.41,0,53.47,24.06,53.47,53.47v105.84c0,29.41-24.06,53.47-53.47,53.47h0c-29.41,0-53.47-24.06-53.47-53.47V54.29C.82,24.88,24.88.82,54.29.82h0Z"/>
  <path class="cls-2" d="M45.53,65.25H15.55v.96c1.8,1.08,2.64,2.88,2.64,7.08v68c0,4.2-.84,6-2.64,7.08v.84h29.98c27.82,0,48.09-18.23,48.09-41.98s-20.27-41.98-48.09-41.98h0ZM45.53,148.37h-17.87v-82.15h17.87c23.99,0,38.62,18.95,38.62,41.02s-14.63,41.14-38.62,41.14h0Z"/>
  <path class="cls-1" d="M79.43,58.42c-2.5,4.89-5.83,8.46-9.74,10.59l1.23.51c4.09-2.75,6.97-6.62,9.02-10.88l-.52-.22h0ZM62.69,71.23c-12.74,1.69-23.11-5.1-27.04-17.91-3.99-13.09.59-28.03,13.24-30.77,9.69-2.07,18.49,4.29,23.89,12.87h.52l2.22-8.43c-6.29-4.14-11.09-6.21-19.08-6.21-14.64,0-27.88,11.83-27.88,26.48s12.65,26.48,27.22,26.48c3.43,0,6.45-.47,9.11-1.31l-2.18-1.19h0Z"/>
</svg>