<?xml version="1.0" encoding="UTF-8"?>
<svg version="1.1" xmlns="http://www.w3.org/2000/svg" width="317" height="225">
<path d="M0 0 C1.2239771 0.65924635 2.43674483 1.34085235 3.625 2.0625 C4.285 2.3925 4.945 2.7225 5.625 3.0625 C4.75 10.8125 4.75 10.8125 3.625 13.0625 C0.33990353 11.96746784 -0.08194377 11.40019988 -2.0625 8.75 C-5.72895446 4.35025465 -9.73753131 1.66418655 -15.453125 0.71875 C-20.1635239 0.50300654 -23.48948746 1.4721583 -27.375 4.0625 C-32.61590093 9.42251231 -34.42812992 13.93025395 -34.75 21.3125 C-34.62137113 28.04714017 -32.78116216 33.89708481 -28.69140625 39.27734375 C-25.53169646 41.71239834 -23.00800711 41.81475863 -19.0625 42.1875 C-13.925891 42.69648653 -9.32367316 43.6073616 -4.375 45.0625 C-1.2346006 45.23360449 -1.2346006 45.23360449 1.625 44.0625 C4.34244582 41.22153391 6.44812383 38.32781425 8.625 35.0625 C9.285 35.0625 9.945 35.0625 10.625 35.0625 C9.03456621 40.15188811 5.8803049 43.93706643 2.625 48.0625 C3.19347656 48.475 3.76195312 48.8875 4.34765625 49.3125 C13.73625171 56.33435437 21.39741418 64.13346565 23.625 76.0625 C24.4470243 88.90494516 23.7064335 99.7863119 15.34765625 110.21875 C12.86078173 112.88043882 10.12478631 115.17504865 7.26171875 117.421875 C5.40716801 119.28085188 5.00938019 120.49996538 4.625 123.0625 C5.285 123.0625 5.945 123.0625 6.625 123.0625 C6.295 126.0325 5.965 129.0025 5.625 132.0625 C4.635 132.3925 3.645 132.7225 2.625 133.0625 C2.20154297 132.28712891 2.20154297 132.28712891 1.76953125 131.49609375 C0.21730068 129.17002389 -1.06692111 127.6639388 -3.375 126.0625 C-7.81136784 125.63913694 -11.99068475 126.37792265 -16.375 127.0625 C-18.4155109 127.24276599 -20.4571833 127.41057738 -22.5 127.5625 C-25.40732616 127.80405826 -27.58635128 128.13295043 -30.375 129.0625 C-33.91838009 135.85762397 -34.12217303 142.68961008 -32.25 150 C-30.11675266 156.51880698 -26.78735584 161.95741821 -20.8125 165.5625 C-14.67349454 168.19013574 -7.21401413 168.45291217 -0.9375 166.1796875 C3.93461933 163.39298288 6.55352881 159.66970679 9.625 155.0625 C10.285 155.0625 10.945 155.0625 11.625 155.0625 C10.3253895 160.98294783 7.2447308 164.37604815 2.625 168.0625 C-4.85288013 172.42856589 -13.02218573 173.09908501 -21.3125 170.9375 C-28.74894008 168.50766016 -34.52683994 164.2653397 -38.40234375 157.39453125 C-41.58179212 149.77151648 -42.27953261 141.83966381 -39.375 134.0625 C-37.75 131 -37.75 131 -36.375 129.0625 C-37.88921001 127.54828999 -39.29972768 127.84940144 -41.41015625 127.74609375 C-42.21904297 127.70419922 -43.02792969 127.66230469 -43.86132812 127.61914062 C-44.71146484 127.57982422 -45.56160156 127.54050781 -46.4375 127.5 C-47.71850586 127.43522461 -47.71850586 127.43522461 -49.02539062 127.36914062 C-51.14172037 127.26273298 -53.25833813 127.16208269 -55.375 127.0625 C-55.05033752 126.38956909 -54.72567505 125.71663818 -54.39117432 125.02331543 C-53.15910755 121.43345664 -53.12083555 118.48572914 -53.11621094 114.68945312 C-53.1127063 113.96523666 -53.10920166 113.2410202 -53.10559082 112.49485779 C-53.0968189 110.11105646 -53.10260649 107.72755413 -53.109375 105.34375 C-53.10802704 103.68135522 -53.10608542 102.01896082 -53.10357666 100.35656738 C-53.10063155 96.87650796 -53.1049033 93.39655136 -53.11425781 89.91650391 C-53.125652 85.46107039 -53.11908925 81.00587786 -53.10711288 76.55045319 C-53.09987772 73.11889844 -53.10218982 69.6874006 -53.10736847 66.25584412 C-53.10870038 64.61323518 -53.10707332 62.97062104 -53.10240936 61.32801819 C-53.09731687 59.03038899 -53.10509236 56.7331473 -53.11621094 54.43554688 C-53.11780212 53.12936401 -53.11939331 51.82318115 -53.12103271 50.47741699 C-53.22960346 46.69734886 -53.22960346 46.69734886 -55.375 42.0625 C-49.435 42.0625 -43.495 42.0625 -37.375 42.0625 C-38.2 40.0825 -39.025 38.1025 -39.875 36.0625 C-42.90091858 28.11946374 -43.45784974 22.37699931 -40.4765625 14.296875 C-37.03082487 7.30764832 -31.23308663 2.53626997 -24.375 -0.9375 C-17.11036631 -3.35904456 -7.01047864 -3.1615884 0 0 Z M-42.375 44.0625 C-42.375 70.7925 -42.375 97.5225 -42.375 125.0625 C-34.32067902 125.39046498 -34.32067902 125.39046498 -28.0625 122.625 C-23.68742757 120.15213297 -20.33986478 118.93431973 -15.29296875 118.9921875 C-5.51570101 119.34787057 -5.51570101 119.34787057 2.875 115.25 C4.3749488 113.34064323 4.3749488 113.34064323 5.625 111.0625 C6.17285156 110.13308594 6.72070312 109.20367187 7.28515625 108.24609375 C13.97994749 95.85360784 15.5097635 83.71692676 11.73046875 70.0546875 C9.80026447 64.83017698 7.00672893 60.46299245 3.625 56.0625 C3.11195312 55.38445312 2.59890625 54.70640625 2.0703125 54.0078125 C0.30013695 52.09672745 -0.95604591 51.05126956 -3.375 50.0625 C-6.71000614 49.9933807 -9.85574782 50.32580922 -13.1640625 50.7421875 C-20.51895355 51.47588709 -25.92426674 49.14428111 -31.94140625 45.0859375 C-35.16406346 43.5456199 -35.16406346 43.5456199 -42.375 44.0625 Z M-23.375 44.0625 C-21.32266315 46.3102975 -20.36832739 47.0647242 -17.375 48.0625 C-15.81381572 48.12990865 -14.2499748 48.14764456 -12.6875 48.125 C-11.87925781 48.11597656 -11.07101563 48.10695313 -10.23828125 48.09765625 C-9.62339844 48.08605469 -9.00851563 48.07445312 -8.375 48.0625 C-13.02785818 44.96059455 -17.79032676 43.72403496 -23.375 44.0625 Z M-26.375 123.0625 C-24.46815715 125.4024444 -24.46815715 125.4024444 -21.1875 125.3125 C-17.20931685 125.05163553 -14.14242668 124.29268014 -10.375 123.0625 C-10.375 122.4025 -10.375 121.7425 -10.375 121.0625 C-15.89590035 118.30204983 -21.41095678 120.08407407 -26.375 123.0625 Z " fill="#228287" transform="translate(70.375,28.9375)"/>
<path d="M0 0 C12.16839411 9.1624632 19.81462851 21.0922817 23 36 C23.09537159 37.71105404 23.13904491 39.42533218 23.14717102 41.13902283 C23.15432632 42.17750366 23.16148163 43.2159845 23.16885376 44.28593445 C23.17154266 45.41997208 23.17423157 46.5540097 23.17700195 47.72241211 C23.18357315 48.92131073 23.19014435 50.12020935 23.19691467 51.35543823 C23.21664861 55.32940028 23.22831887 59.30334908 23.23828125 63.27734375 C23.24233147 64.65024904 23.24644847 66.02315414 23.25063133 67.39605904 C23.26968054 73.85295615 23.28390752 80.30984192 23.2922433 86.76676172 C23.30199034 94.19246331 23.32824411 101.61786479 23.36874419 109.04346079 C23.3990456 114.79911341 23.41372569 120.55468076 23.41702431 126.31041151 C23.41936048 129.73983667 23.42813011 133.1689412 23.45348549 136.59827995 C23.47797633 140.43677105 23.47689271 144.27449091 23.4699707 148.11303711 C23.48278076 149.22885666 23.49559082 150.34467621 23.50878906 151.49430847 C23.4142968 165.97142792 18.21451592 179.6945732 8.25 190.3125 C-5.10606062 202.69066023 -20.12677338 206.75491047 -37.89208984 206.13183594 C-51.88882974 205.25643177 -63.55113006 197.99709789 -73 188 C-82.81746163 176.03849503 -86.30288871 164.09369246 -86.29052734 148.82348633 C-86.30060318 147.02426224 -86.30060318 147.02426224 -86.31088257 145.18869019 C-86.32656221 141.91769426 -86.33323398 138.64685123 -86.33451414 135.37582231 C-86.33594215 133.32534799 -86.34022405 131.27489978 -86.34550858 129.22443199 C-86.36397987 122.05121565 -86.37218316 114.87807332 -86.37060547 107.70483398 C-86.36940604 101.05080172 -86.39047661 94.39709484 -86.4220928 87.74314481 C-86.44837472 82.00438364 -86.45896775 76.26572793 -86.45769465 70.52690715 C-86.45718834 67.11097442 -86.46268511 63.695331 -86.48405075 60.279459 C-86.5037901 56.46053213 -86.49784019 52.64242831 -86.48583984 48.82348633 C-86.49707886 47.71395096 -86.50831787 46.60441559 -86.51989746 45.46125793 C-86.39424028 29.61246288 -80.19470895 16.75633099 -69.48046875 5.32421875 C-50.23770253 -12.70640471 -21.8332387 -13.52804594 0 0 Z M-70.10546875 9.94140625 C-85.20389712 25.90641109 -84.45632137 46.5037688 -84.3984375 66.96875 C-84.40046192 69.49735599 -84.40337642 72.02596142 -84.40713501 74.55456543 C-84.41154096 79.83639021 -84.40547497 85.11810025 -84.39111328 90.39990234 C-84.37479206 96.47176815 -84.38008257 102.54333154 -84.3965925 108.61519003 C-84.41194409 114.5007832 -84.41019582 120.38626317 -84.4014473 126.27186584 C-84.39945819 128.75635318 -84.40185877 131.24084834 -84.40888596 133.72532654 C-84.45631632 155.20352597 -83.43190679 173.20283137 -67.69921875 189.5234375 C-56.53973541 199.76238459 -43.08824319 204.39532515 -28 204 C-13.02268496 202.29951882 -1.16915294 196.08341432 9 185 C18.45558179 172.99598073 21.1449903 159.89051082 21.16113281 144.96850586 C21.16609772 143.86685089 21.17106262 142.76519592 21.17617798 141.63015747 C21.19076118 137.99171315 21.19759622 134.35331248 21.203125 130.71484375 C21.20888083 128.17623392 21.2146385 125.6376241 21.22039795 123.09901428 C21.22955736 118.45505155 21.23586125 113.8111018 21.2388947 109.16713232 C21.24336457 102.36408382 21.26086825 95.56123732 21.2898953 88.75825018 C21.31426107 82.839069 21.32184607 76.91993716 21.32357025 71.00070381 C21.32658284 68.49666814 21.33456385 65.99263303 21.34775543 63.48863029 C21.44955287 42.67532301 20.81138385 24.22810847 5.54296875 8.3203125 C-17.64903349 -12.8410536 -47.69110211 -10.72638637 -70.10546875 9.94140625 Z " fill="#228287" transform="translate(86,15)"/>
<path d="M0 0 C6.27 0 12.54 0 19 0 C19.33 0.66 19.66 1.32 20 2 C17.69 2 15.38 2 13 2 C13 28.73 13 55.46 13 83 C15.64 83 18.28 83 21 83 C21 83.66 21 84.32 21 85 C14.07 85 7.14 85 0 85 C0.66 83.35 1.32 81.7 2 80 C2.30219795 76.49793521 2.30219795 76.49793521 2.25878906 72.62695312 C2.2622937 71.90273666 2.26579834 71.1785202 2.26940918 70.43235779 C2.2781811 68.04855646 2.27239351 65.66505413 2.265625 63.28125 C2.26697296 61.61885522 2.26891458 59.95646082 2.27142334 58.29406738 C2.27436845 54.81400796 2.2700967 51.33405136 2.26074219 47.85400391 C2.249348 43.39857039 2.25591075 38.94337786 2.26788712 34.48795319 C2.27512228 31.05639844 2.27281018 27.6249006 2.26763153 24.19334412 C2.26629962 22.55073518 2.26792668 20.90812104 2.27259064 19.26551819 C2.27768313 16.96788899 2.26990764 14.6706473 2.25878906 12.37304688 C2.25719788 11.06686401 2.25560669 9.76068115 2.25396729 8.41491699 C2.14539654 4.63484886 2.14539654 4.63484886 0 0 Z " fill="#228287" transform="translate(15,71)"/>
<path d="M0 0 C1.98 0 3.96 0 6 0 C5.25 5.75 5.25 5.75 3 8 C5.97 8.33 8.94 8.66 12 9 C12 9.66 12 10.32 12 11 C9.36 11 6.72 11 4 11 C4.08087857 15.08414438 4.19372403 19.16679586 4.3125 23.25 C4.33505859 24.40886719 4.35761719 25.56773438 4.38085938 26.76171875 C4.41630859 27.87675781 4.45175781 28.99179688 4.48828125 30.140625 C4.51446533 31.16704102 4.54064941 32.19345703 4.56762695 33.25097656 C5.04899886 36.31153427 5.95237052 37.72114809 8 40 C10.86003076 39.69080748 12.54718282 39.41927517 14.6875 37.4375 C15.91278136 35.16197748 16.3623506 33.55519893 16.875 31.0625 C17.80175846 26.8606714 19.60535445 24.71571644 23 22 C23.66 22 24.32 22 25 22 C24.87625 20.4221875 24.87625 20.4221875 24.75 18.8125 C25.03794446 14.42134701 25.89027405 13.02087664 29 10 C33.7756793 8.4081069 37.59386321 8.46938234 42.3125 10.25 C45.204394 12.13309376 45.79621058 12.8728951 47 16 C47.30297852 18.51782227 47.30297852 18.51782227 47.37890625 21.31640625 C47.41306641 22.32767578 47.44722656 23.33894531 47.48242188 24.38085938 C47.50884766 25.43080078 47.53527344 26.48074219 47.5625 27.5625 C47.6224286 29.64725037 47.6860633 31.73189843 47.75390625 33.81640625 C47.77783447 34.73881104 47.8017627 35.66121582 47.82641602 36.61157227 C47.91199022 39.14702023 47.91199022 39.14702023 49 42 C46.36 42 43.72 42 41 42 C40.505 40.02 40.505 40.02 40 38 C39.401875 38.639375 38.80375 39.27875 38.1875 39.9375 C35.35406567 42.6090238 33.54715021 42.95870564 29.6875 43.25 C24.78281368 42.91747889 21.47740296 41.47740296 18 38 C16.824375 38.9590625 16.824375 38.9590625 15.625 39.9375 C12.24372015 42.59421989 10.83386299 43.19660747 6.625 42.875 C5.85414063 42.83117187 5.08328125 42.78734375 4.2890625 42.7421875 C0.96068232 41.66301986 -0.0881643 39.88561653 -2 37 C-2.45410156 34.0456543 -2.45410156 34.0456543 -2.390625 30.82421875 C-2.37773437 29.66728516 -2.36484375 28.51035156 -2.3515625 27.31835938 C-2.31804687 26.12017578 -2.28453125 24.92199219 -2.25 23.6875 C-2.23195312 22.46998047 -2.21390625 21.25246094 -2.1953125 19.99804688 C-2.14825131 16.99789578 -2.0825131 13.99935111 -2 11 C-3.32 11 -4.64 11 -6 11 C-6 10.34 -6 9.68 -6 9 C-5.38125 8.814375 -4.7625 8.62875 -4.125 8.4375 C-0.94397134 6.28562767 -0.80548053 3.62466237 0 0 Z M27 15 C27 16.98 27 18.96 27 21 C33.435 20.505 33.435 20.505 40 20 C40.33 19.01 40.66 18.02 41 17 C39.84338843 14.79192337 38.77322566 12.77322566 37 11 C32.39164202 10.35995028 30.12049812 11.61203061 27 15 Z M25 25 C22.88151868 28.41690536 22.66606008 30.99272096 23 35 C23.86425001 37.59275002 24.56726483 38.67544863 26.75 40.3125 C29.93640308 41.28612316 31.81629934 40.97460224 35 40 C38.06162534 37.41462749 39.72814166 35.81557502 41 32 C41.0685495 30.10529184 41.08480372 28.2083166 41.0625 26.3125 C41.05347656 25.31863281 41.04445313 24.32476562 41.03515625 23.30078125 C41.02355469 22.54152344 41.01195312 21.78226563 41 21 C34.84979729 20.56069981 30.03381052 21.17146805 25 25 Z " fill="#228287" transform="translate(255,96)"/>
<path d="M0 0 C1.0725 0.350625 2.145 0.70125 3.25 1.0625 C4.61125 1.5265625 4.61125 1.5265625 6 2 C6 2.99 6 3.98 6 5 C6.66 5 7.32 5 8 5 C7.67 7.97 7.34 10.94 7 14 C6.01 14.33 5.02 14.66 4 15 C3.71769531 14.48308594 3.43539062 13.96617187 3.14453125 13.43359375 C1.59230068 11.10752389 0.30807889 9.6014388 -2 8 C-6.43636784 7.57663694 -10.61568475 8.31542265 -15 9 C-17.0405109 9.18026599 -19.0821833 9.34807738 -21.125 9.5 C-24.03232616 9.74155826 -26.21135128 10.07045043 -29 11 C-32.54338009 17.79512397 -32.74717303 24.62711008 -30.875 31.9375 C-28.74175266 38.45630698 -25.41235584 43.89491821 -19.4375 47.5 C-13.29849454 50.12763574 -5.83901413 50.39041217 0.4375 48.1171875 C5.30961933 45.33048288 7.92852881 41.60720679 11 37 C11.66 37 12.32 37 13 37 C11.7003895 42.92044783 8.6197308 46.31354815 4 50 C-3.47788013 54.36606589 -11.64718573 55.03658501 -19.9375 52.875 C-27.37394008 50.44516016 -33.15183994 46.2028397 -37.02734375 39.33203125 C-40.19973007 31.7259484 -40.92573065 23.7595465 -38 16 C-37.03182008 14.31464976 -36.04349839 12.63978318 -35 11 C-35.33 10.34 -35.66 9.68 -36 9 C-35.01 9 -34.02 9 -33 9 C-32.67 8.01 -32.34 7.02 -32 6 C-29.85546875 4.6484375 -29.85546875 4.6484375 -27.1875 3.375 C-26.31480469 2.94960937 -25.44210938 2.52421875 -24.54296875 2.0859375 C-20.03253361 0.15982234 -15.89402141 -0.26209587 -11 -0.625 C-9.1746875 -0.76808594 -9.1746875 -0.76808594 -7.3125 -0.9140625 C-4.49821427 -0.98707463 -2.62449611 -0.87676751 0 0 Z M-25 5 C-23.09315715 7.3399444 -23.09315715 7.3399444 -19.8125 7.25 C-15.83431685 6.98913553 -12.76742668 6.23018014 -9 5 C-9 4.34 -9 3.68 -9 3 C-14.52090035 0.23954983 -20.03595678 2.02157407 -25 5 Z " fill="#539C8F" transform="translate(69,147)"/>
<path d="M0 0 C28.96317351 -0.77273289 28.96317351 -0.77273289 38.30859375 7.1484375 C42.89737444 12.17172167 45.26003409 17.70971327 45.625 24.5 C45.26006209 31.28976582 42.95835815 37.06594048 38.09765625 41.88671875 C32.42237314 46.38555161 27.0125333 48.26745082 19.7265625 48.1953125 C17.99599609 48.18564453 17.99599609 48.18564453 16.23046875 48.17578125 C15.04066406 48.15902344 13.85085937 48.14226562 12.625 48.125 C11.41199219 48.11597656 10.19898438 48.10695312 8.94921875 48.09765625 C5.96594227 48.07416588 2.98307406 48.04131682 0 48 C0.33 47.34 0.66 46.68 1 46 C1.09410335 44.62697532 1.1279354 43.24953594 1.12939453 41.87329102 C1.13254669 41.02223282 1.13569885 40.17117462 1.13894653 39.29432678 C1.1369223 38.37348801 1.13489807 37.45264923 1.1328125 36.50390625 C1.13376923 35.55942123 1.13472595 34.61493622 1.13571167 33.64183044 C1.13639293 31.64199761 1.13454242 29.64216258 1.13037109 27.64233398 C1.12502801 24.57856274 1.13031486 21.5149385 1.13671875 18.45117188 C1.13605784 16.51041634 1.13477642 14.5696609 1.1328125 12.62890625 C1.13483673 11.71009171 1.13686096 10.79127716 1.13894653 9.84461975 C1.13579437 8.99040939 1.13264221 8.13619904 1.12939453 7.25610352 C1.12859894 6.50490738 1.12780334 5.75371124 1.12698364 4.97975159 C1.07082043 2.78770401 1.07082043 2.78770401 0 0 Z M8 2 C8 16.85 8 31.7 8 47 C22.3969236 47.42276916 22.3969236 47.42276916 33.65234375 40.35546875 C38.10512877 34.63783466 39.61907137 28.18122795 39 21 C37.49002199 14.26408246 35.05916231 8.77823262 29.16796875 4.74609375 C21.76624988 0.80491877 17.22934712 2 8 2 Z " fill="#228287" transform="translate(128,90)"/>
<path d="M0 0 C1.2239771 0.65924635 2.43674483 1.34085235 3.625 2.0625 C4.285 2.3925 4.945 2.7225 5.625 3.0625 C4.75 10.8125 4.75 10.8125 3.625 13.0625 C0.33990353 11.96746784 -0.08194377 11.40019988 -2.0625 8.75 C-5.72895446 4.35025465 -9.73753131 1.66418655 -15.453125 0.71875 C-20.1635239 0.50300654 -23.48948746 1.4721583 -27.375 4.0625 C-32.61590093 9.42251231 -34.42812992 13.93025395 -34.75 21.3125 C-34.61777426 28.23546179 -32.66874133 34.21270016 -28.3125 39.625 C-26.33318504 41.24938728 -26.33318504 41.24938728 -23.375 42.0625 C-23.045 43.0525 -22.715 44.0425 -22.375 45.0625 C-17.96761436 47.37150204 -13.67776235 47.45477267 -8.80078125 47.71875 C-6.375 48.0625 -6.375 48.0625 -4.375 50.0625 C-6.95290249 52.64040249 -12.93008344 51.97196343 -16.375 52.0625 C-23.48827027 51.54856914 -29.83304016 48.49406716 -35.375 44.0625 C-40.16647699 37.10749558 -43.3160462 29.53191581 -42.375 21.0625 C-40.7976297 13.07706286 -36.77913712 7.31913717 -30.24609375 2.48828125 C-21.59731159 -3.07051244 -9.56889682 -4.31538484 0 0 Z " fill="#579E91" transform="translate(70.375,28.9375)"/>
<path d="M0 0 C0.495 0.495 0.495 0.495 1 1 C0.82364548 3.69082872 0.38164079 6.32851446 0 9 C-0.99 9.33 -1.98 9.66 -3 10 C-3.4125 9.45730469 -3.825 8.91460937 -4.25 8.35546875 C-8.23620199 3.41720513 -11.59470685 0.06550766 -18 -1 C-22.64040452 -1.27090874 -25.37956229 -0.39801665 -29.3125 2.125 C-34.54406796 7.72156107 -35.59068791 12.66580006 -35.34375 20.15625 C-34.55801891 26.65638905 -32.47885739 32.06669083 -27.5625 36.5 C-21.96473961 40.68944435 -16.94225915 41.91712119 -10 41 C-3.66485138 39.07641851 0.13029308 35.21824115 4 30 C4.33 30.99 4.66 31.98 5 33 C1.68079691 38.11280973 -2.86556726 42.7361996 -8.7890625 44.546875 C-16.97916868 46.22541266 -24.93920888 45.60780994 -32 41 C-36.70230231 37.29682236 -40.77108512 33.02387742 -42 27 C-42.78539092 19.33262119 -42.9051593 12.2692345 -38 6 C-27.51602104 -5.48134864 -13.76586479 -7.18595457 0 0 Z " fill="#539C8F" transform="translate(170,157)"/>
<path d="M0 0 C3.0625 2.3125 3.0625 2.3125 4.1875 4.75 C4.04587767 7.65325767 3.32727359 9.70855438 2.0625 12.3125 C1.381875 11.590625 0.70125 10.86875 0 10.125 C-4.89782914 5.22717086 -9.63303538 1.58787205 -16.6875 1 C-21.24623529 1.10056034 -24.57713441 2.16481577 -27.9375 5.3125 C-32.19087362 11.36006957 -32.97507595 18.11172288 -31.9375 25.3125 C-29.99119071 31.72737655 -26.94058974 37.40144289 -21.1875 41.0625 C-14.44442138 43.65599178 -9.66267469 43.79877316 -2.984375 41.265625 C1.38994717 39.22872689 4.28580166 36.83500487 6.0625 32.3125 C6.7225 32.3125 7.3825 32.3125 8.0625 32.3125 C7.15292205 37.12480195 4.57737306 40.02079348 1.0625 43.3125 C-5.95161302 47.43844883 -14.26772144 48.27077558 -22.125 46.3125 C-28.73497346 43.99007689 -33.81364307 39.68080184 -37.4375 33.6875 C-40.19377654 27.30974801 -40.04914604 20.04701597 -38.08984375 13.46484375 C-34.99279853 6.50436585 -30.39668294 2.54594223 -23.67578125 -0.8203125 C-16.72169463 -3.02260527 -6.66816773 -2.99461351 0 0 Z " fill="#539C8F" transform="translate(166.9375,28.6875)"/>
<path d="M0 0 C0.33 2.31 0.66 4.62 1 7 C1.78375 6.030625 2.5675 5.06125 3.375 4.0625 C4.91288705 2.16037654 5.79259913 1.10370043 8 0 C12.23390162 -0.40710593 14.51588352 -0.25575965 18.3125 1.75 C22.40304705 5.17464404 23.20697239 8.14498545 23.81640625 13.3515625 C23.94080078 14.36734375 24.06519531 15.383125 24.19335938 16.4296875 C24.31517578 17.48414062 24.43699219 18.53859375 24.5625 19.625 C24.81059679 21.72173592 25.0617458 23.81811365 25.31640625 25.9140625 C25.42412354 26.8417041 25.53184082 27.7693457 25.64282227 28.72509766 C25.8861668 31.02489077 25.8861668 31.02489077 27 33 C23.7 33 20.4 33 17 33 C17.33 31.68 17.66 30.36 18 29 C17.96617834 25.67113971 17.58277293 22.37359068 17.25 19.0625 C17.17523438 18.16853516 17.10046875 17.27457031 17.0234375 16.35351562 C16.55509921 11.57433627 16.10127515 7.87070544 13 4 C10.75014989 2.98393866 9.41285292 2.95297621 6.9765625 3.23046875 C4.84100481 3.81741647 4.84100481 3.81741647 3.98828125 5.85546875 C1.48550652 14.4922116 -0.93787056 24.18638831 2 33 C-0.97 33 -3.94 33 -7 33 C-7 22.44 -7 11.88 -7 1 C-3 0 -3 0 0 0 Z " fill="#228287" transform="translate(221,105)"/>
<path d="M0 0 C2.70552388 2.19823815 4.44778333 3.89556667 6 7 C6.15378852 8.95774069 6.24971463 10.92017352 6.31640625 12.8828125 C6.35830078 14.04941406 6.40019531 15.21601563 6.44335938 16.41796875 C6.48267578 17.64128906 6.52199219 18.86460937 6.5625 20.125 C6.60568359 21.35605469 6.64886719 22.58710938 6.69335938 23.85546875 C6.79968704 26.90352853 6.90171781 29.9516719 7 33 C4.69 33 2.38 33 0 33 C-0.495 30.525 -0.495 30.525 -1 28 C-1.598125 28.639375 -2.19625 29.27875 -2.8125 29.9375 C-6.42284069 33.3415355 -9.97752492 33.33154547 -14.70703125 33.29296875 C-18.20475473 32.84607052 -20.35865969 31.24513927 -23 29 C-24.72986655 25.5402669 -24.48431489 21.78289201 -24 18 C-21.94161475 14.66399633 -20.2606736 13.1737824 -17 11 C-16.855625 9.88625 -16.71125 8.7725 -16.5625 7.625 C-15.93257757 3.56549991 -15.20231052 2.44882569 -12 0 C-7.82507137 -1.39164288 -4.24477353 -1.10959869 0 0 Z M-11.6875 2.625 C-14.6164129 5.18139478 -14.6164129 5.18139478 -15 11 C-10.38 10.67 -5.76 10.34 -1 10 C-1.26393501 6.56769552 -1.26393501 6.56769552 -2 3 C-5.82830146 0.44779903 -7.71571337 0.2234546 -11.6875 2.625 Z M-16 15 C-18.67172847 19.00759271 -18.81462636 22.29044136 -18 27 C-16.10744542 29.814179 -16.10744542 29.814179 -13 31 C-9.51465586 31.12447658 -7.19408376 31.02874908 -4.4765625 28.6875 C-1.03204799 24.7054023 0.14180086 21.53286432 0.125 16.375 C0.12757813 15.57835937 0.13015625 14.78171875 0.1328125 13.9609375 C0.21570074 11.99646464 0.21570074 11.99646464 -1 11 C-6.87968045 10.40003261 -11.19233359 11.6954201 -16 15 Z " fill="#539C8F" transform="translate(202,169)"/>
<path d="M0 0 C3.01613579 1.98790768 4.81689724 3.76414565 6.75 6.8125 C6.75 8.1325 6.75 9.4525 6.75 10.8125 C6.09 11.1425 5.43 11.4725 4.75 11.8125 C5.265625 12.451875 5.78125 13.09125 6.3125 13.75 C8.30784908 18.00096109 8.0799235 21.34428141 6.75 25.8125 C3.92679508 29.49835087 1.2628579 31.68428553 -3.25 32.8125 C-9.31371061 33.4642616 -14.91803968 32.93733078 -20.25 29.8125 C-24.97683396 25.6252054 -26.10686094 22.03115544 -26.5 15.9375 C-26.39542793 10.30106544 -24.46189028 6.99745939 -20.4375 3.0625 C-14.0245457 -1.46429127 -7.38607749 -2.69875908 0 0 Z M-18.25 5.8125 C-18.25 6.8025 -18.25 7.7925 -18.25 8.8125 C-11.98 8.8125 -5.71 8.8125 0.75 8.8125 C-1.12920333 3.57316994 -1.12920333 3.57316994 -5.25 0.8125 C-11.52653407 -0.1173569 -14.06727194 1.42573642 -18.25 5.8125 Z M-20.25 11.8125 C-20.31285993 17.78419366 -19.20794136 22.19490174 -15.25 26.8125 C-11.58652822 29.95261867 -8.15743374 30.38296545 -3.47265625 30.2421875 C0.33350909 29.50637346 2.10670706 27.58795759 4.75 24.8125 C6.31935594 21.67378812 6.10201103 19.27394178 5.75 15.8125 C3.69484539 12.85768227 2.11640712 11.0618862 -1.52001953 10.39819336 C-4.19695779 10.283993 -6.82306707 10.32722861 -9.5 10.4375 C-10.88445312 10.45876953 -10.88445312 10.45876953 -12.296875 10.48046875 C-16.60780276 10.20718493 -16.60780276 10.20718493 -20.25 11.8125 Z " fill="#228287" transform="translate(202.25,106.1875)"/>
<path d="M0 0 C2.46585546 2.0307045 3.75722859 3.87048125 5.125 6.75 C5.125 7.74 5.125 8.73 5.125 9.75 C4.465 10.08 3.805 10.41 3.125 10.75 C3.640625 11.575 4.15625 12.4 4.6875 13.25 C6.43346268 17.50103956 6.60410645 20.40232347 5.125 24.75 C1.9056055 28.75249046 -1.24035068 31.39816795 -6.390625 32.0859375 C-12.76870162 32.17705288 -17.64268285 31.58785527 -22.875 27.75 C-27.60458003 22.65660612 -28.22734282 19.30996964 -28.15625 12.51171875 C-27.6443539 7.48518344 -25.04989456 4.89314065 -21.5625 1.5 C-14.70544126 -2.96506151 -7.39401386 -3.21478864 0 0 Z M-19.875 4.75 C-20.205 5.74 -20.535 6.73 -20.875 7.75 C-14.275 7.75 -7.675 7.75 -0.875 7.75 C-3.65444107 2.7786678 -3.65444107 2.7786678 -7.875 -0.25 C-13.65360199 -1.25497426 -15.96064501 0.83564501 -19.875 4.75 Z M-21.875 9.75 C-22.05676498 16.17909454 -21.66439684 20.39300252 -17.875 25.75 C-14.45881692 28.5368862 -11.27335947 29.57406562 -6.875 29.75 C-1.77738708 28.1679822 1.41197946 26.41639533 4.125 21.75 C4.7852967 17.78821982 4.49050574 16.29825861 2.25 12.9375 C0.06108611 10.68420629 -0.82819133 9.80760545 -3.93798828 9.63647461 C-5.17911377 9.64432983 -5.17911377 9.64432983 -6.4453125 9.65234375 C-7.78916016 9.65717773 -7.78916016 9.65717773 -9.16015625 9.66210938 C-10.09730469 9.67048828 -11.03445312 9.67886719 -12 9.6875 C-13.41732422 9.69426758 -13.41732422 9.69426758 -14.86328125 9.70117188 C-17.20058387 9.71297643 -19.53776061 9.72944241 -21.875 9.75 Z " fill="#539C8F" transform="translate(266.875,170.25)"/>
<path d="M0 0 C3.63 0 7.26 0 11 0 C10.89365234 1.22783203 10.89365234 1.22783203 10.78515625 2.48046875 C11.05969134 6.97785267 12.55672721 10.2675503 14.4375 14.3125 C14.92573242 15.40401367 14.92573242 15.40401367 15.42382812 16.51757812 C16.83100975 20.00229285 16.83100975 20.00229285 19 23 C20.01085436 20.60824639 21.00879203 18.21238415 22 15.8125 C22.42925781 14.80219727 22.42925781 14.80219727 22.8671875 13.77148438 C24.9769799 8.62258626 25.76062072 5.28186217 24 0 C26.97 0 29.94 0 33 0 C31.86560321 2.26879358 30.72305997 4.53367092 29.5546875 6.78515625 C25.58959534 14.52169654 22.07297768 22.35335176 18.84130859 30.42602539 C14.15838298 41.92080851 14.15838298 41.92080851 10 44 C2.77669903 44.46601942 2.77669903 44.46601942 -0.5 42.5 C-0.995 42.005 -1.49 41.51 -2 41 C-1.4409112 37.75728494 -0.5867822 36.06942576 2 34 C2.66 34 3.32 34 4 34 C4.33 36.64 4.66 39.28 5 42 C7.37233611 41.96219702 7.37233611 41.96219702 10 41 C12.51894239 38.38837017 12.51894239 38.38837017 14 35 C13.61810891 30.82764431 12.48491739 27.34815441 10.8203125 23.5234375 C10.38589844 22.523125 9.95148438 21.5228125 9.50390625 20.4921875 C9.04886719 19.46351562 8.59382812 18.43484375 8.125 17.375 C7.67769531 16.33859375 7.23039063 15.3021875 6.76953125 14.234375 C4.46273352 8.78936638 4.46273352 8.78936638 1.34716797 3.79931641 C0 2 0 2 0 0 Z " fill="#539C8F" transform="translate(213,42)"/>
<path d="M0 0 C2.31 0 4.62 0 7 0 C5.25 5.75 5.25 5.75 3 8 C5.97 8.33 8.94 8.66 12 9 C12 9.33 12 9.66 12 10 C9.36 10 6.72 10 4 10 C4.11018673 13.89639996 4.24074478 17.79186093 4.375 21.6875 C4.4059375 22.79029297 4.436875 23.89308594 4.46875 25.02929688 C4.50742188 26.09599609 4.54609375 27.16269531 4.5859375 28.26171875 C4.6173584 29.24100342 4.6487793 30.22028809 4.68115234 31.22924805 C5.01429569 34.12422801 5.79800587 36.35772167 7 39 C9.83073436 39.50169415 9.83073436 39.50169415 13 39 C15.60799012 35.89860634 17.37900434 33.03647181 18 29 C18.66 29 19.32 29 20 29 C19.52431821 33.99465883 18.1835207 37.10903025 15 41 C11.87634385 42.9417322 10.1379311 43.00483969 6.4375 42.875 C2.67549589 41.91739895 1.32927023 41.04596876 -1 38 C-2.0592918 34.82212459 -2.11458939 32.57411057 -2.09765625 29.23828125 C-2.09443359 28.12001953 -2.09121094 27.00175781 -2.08789062 25.84960938 C-2.07951172 24.68236328 -2.07113281 23.51511719 -2.0625 22.3125 C-2.05798828 21.13365234 -2.05347656 19.95480469 -2.04882812 18.74023438 C-2.03703273 15.82677211 -2.0205727 12.91341137 -2 10 C-3.32 9.67 -4.64 9.34 -6 9 C-5.38125 8.814375 -4.7625 8.62875 -4.125 8.4375 C-0.94397134 6.28562767 -0.80548053 3.62466237 0 0 Z " fill="#539C8F" transform="translate(196,33)"/>
<path d="M0 0 C0.01030746 0.56962967 0.02061493 1.13925934 0.03123474 1.72615051 C0.13929277 7.64705908 0.25389145 13.56781525 0.37231445 19.48852539 C0.41566552 21.69910498 0.45734046 23.90971809 0.49731445 26.12036133 C0.55501266 29.29518749 0.61870862 32.46984486 0.68359375 35.64453125 C0.70030624 36.63524124 0.71701874 37.62595123 0.73423767 38.64668274 C0.75418289 39.56741074 0.77412811 40.48813873 0.79467773 41.43676758 C0.81022202 42.2472908 0.8257663 43.05781403 0.84178162 43.89289856 C0.92809721 46.19146683 0.92809721 46.19146683 2 49 C-1.3 49 -4.6 49 -8 49 C-7.67 48.34 -7.34 47.68 -7 47 C-6.90589665 45.62697532 -6.8720646 44.24953594 -6.87060547 42.87329102 C-6.86745331 42.02223282 -6.86430115 41.17117462 -6.86105347 40.29432678 C-6.8630777 39.37348801 -6.86510193 38.45264923 -6.8671875 37.50390625 C-6.86623077 36.55942123 -6.86527405 35.61493622 -6.86428833 34.64183044 C-6.86360707 32.64199761 -6.86545758 30.64216258 -6.86962891 28.64233398 C-6.87497199 25.57856274 -6.86968514 22.5149385 -6.86328125 19.45117188 C-6.86394216 17.51041634 -6.86522358 15.5696609 -6.8671875 13.62890625 C-6.86516327 12.71009171 -6.86313904 11.79127716 -6.86105347 10.84461975 C-6.86420563 9.99040939 -6.86735779 9.13619904 -6.87060547 8.25610352 C-6.87140106 7.50490738 -6.87219666 6.75371124 -6.87301636 5.97975159 C-6.92917957 3.78770401 -6.92917957 3.78770401 -8 1 C-5.23735711 0.40267181 -2.83967231 0 0 0 Z " fill="#228287" transform="translate(315,89)"/>
<path d="M0 0 C0.33 1.98 0.66 3.96 1 6 C1.804375 4.7934375 1.804375 4.7934375 2.625 3.5625 C5 1 5 1 7.875 0 C11.64834059 0 13.78971111 1.08911375 17 3 C16.45276317 6.37462715 15.9451 8.08235 14 11 C13.34 11 12.68 11 12 11 C11.01 8.69 10.02 6.38 9 4 C7.68 4 6.36 4 5 4 C4.525625 5.051875 4.05125 6.10375 3.5625 7.1875 C3.29566406 7.77917969 3.02882812 8.37085938 2.75390625 8.98046875 C0.74114804 14.37215783 0.87927887 19.638179 0.9375 25.3125 C0.94201172 26.14845703 0.94652344 26.98441406 0.95117188 27.84570312 C0.96289452 29.89716649 0.98082797 31.94859273 1 34 C-1.97 34 -4.94 34 -8 34 C-7.83773926 33.29117676 -7.67547852 32.58235352 -7.50830078 31.85205078 C-6.9926462 28.95873817 -6.87063696 26.30366564 -6.8671875 23.3671875 C-6.86589844 22.31402344 -6.86460937 21.26085937 -6.86328125 20.17578125 C-6.86714844 19.08652344 -6.87101563 17.99726563 -6.875 16.875 C-6.87113281 15.77800781 -6.86726562 14.68101562 -6.86328125 13.55078125 C-6.86457031 12.50019531 -6.86585938 11.44960937 -6.8671875 10.3671875 C-6.86831543 9.40925293 -6.86944336 8.45131836 -6.87060547 7.46435547 C-6.8975734 4.8638643 -6.8975734 4.8638643 -8 2 C-2.25 0 -2.25 0 0 0 Z " fill="#539C8F" transform="translate(221,168)"/>
<path d="M0 0 C1.0725 0.350625 2.145 0.70125 3.25 1.0625 C4.61125 1.5265625 4.61125 1.5265625 6 2 C6 2.99 6 3.98 6 5 C6.66 5 7.32 5 8 5 C7.67 7.97 7.34 10.94 7 14 C6.01 14.33 5.02 14.66 4 15 C3.71769531 14.48308594 3.43539062 13.96617187 3.14453125 13.43359375 C1.59230068 11.10752389 0.30807889 9.6014388 -2 8 C-6.43443737 7.57682117 -10.61855966 8.30525772 -15 9 C-16.89412657 9.20402161 -18.7899999 9.3926953 -20.6875 9.5625 C-21.5640625 9.645 -22.440625 9.7275 -23.34375 9.8125 C-27.56360379 10.11037203 -31.77247712 10.08253298 -36 10 C-35.01 9.67 -34.02 9.34 -33 9 C-32.67 8.01 -32.34 7.02 -32 6 C-29.85546875 4.6484375 -29.85546875 4.6484375 -27.1875 3.375 C-26.31480469 2.94960937 -25.44210938 2.52421875 -24.54296875 2.0859375 C-20.03253361 0.15982234 -15.89402141 -0.26209587 -11 -0.625 C-9.1746875 -0.76808594 -9.1746875 -0.76808594 -7.3125 -0.9140625 C-4.49821427 -0.98707463 -2.62449611 -0.87676751 0 0 Z M-25 5 C-23.09315715 7.3399444 -23.09315715 7.3399444 -19.8125 7.25 C-15.83431685 6.98913553 -12.76742668 6.23018014 -9 5 C-9 4.34 -9 3.68 -9 3 C-14.52090035 0.23954983 -20.03595678 2.02157407 -25 5 Z " fill="#5FA397" transform="translate(69,147)"/>
<path d="M0 0 C0.02505615 0.85754883 0.0501123 1.71509766 0.07592773 2.59863281 C0.17123412 5.7893437 0.27045751 8.97990219 0.37231445 12.17041016 C0.4155455 13.54959378 0.45722866 14.92882685 0.49731445 16.30810547 C0.55530403 18.29406938 0.61937723 20.27985269 0.68359375 22.265625 C0.72025146 23.45961914 0.75690918 24.65361328 0.79467773 25.88378906 C0.91894104 29.18074351 0.91894104 29.18074351 2 33 C-0.97 33 -3.94 33 -7 33 C-7 22.44 -7 11.88 -7 1 C-3 0 -3 0 0 0 Z " fill="#539C8F" transform="translate(185,42)"/>
<path d="M0 0 C1.65 0.33 3.3 0.66 5 1 C5.38218767 2.65614657 5.71395102 4.32457024 6 6 C5 7 5 7 1.9375 7.0625 C0.968125 7.041875 -0.00125 7.02125 -1 7 C-1.625 5.1875 -1.625 5.1875 -2 3 C-1.34 2.01 -0.68 1.02 0 0 Z " fill="#539C8F" transform="translate(180,30)"/>
<path d="M0 0 C0 0.66 0 1.32 0 2 C-6.43013467 3.73955334 -12.34949576 4.24991456 -19 4 C-19 3.34 -19 2.68 -19 2 C-16.95928485 1.66089006 -14.91737379 1.32897296 -12.875 1 C-11.73804688 0.814375 -10.60109375 0.62875 -9.4296875 0.4375 C-6.23862398 0.03043951 -3.21182209 -0.07809902 0 0 Z " fill="#238287" transform="translate(63,152)"/>
<path d="M0 0 C2.97 0 5.94 0 9 0 C8.01 0.495 8.01 0.495 7 1 C6.67 1.99 6.34 2.98 6 4 C2.7 4 -0.6 4 -4 4 C-3.01 3.67 -2.02 3.34 -1 3 C-0.67 2.01 -0.34 1.02 0 0 Z " fill="#D5E7E8" transform="translate(37,153)"/>
<path d="M0 0 C0.66 0 1.32 0 2 0 C0.49087042 4.98012761 -2.55661849 8.24259942 -6 12 C-7.32 11.67 -8.64 11.34 -10 11 C-9.52949219 10.62488281 -9.05898437 10.24976562 -8.57421875 9.86328125 C-4.88211118 6.82856757 -2.35598023 4.21596462 0 0 Z " fill="#539C8F" transform="translate(79,64)"/>
<path d="M0 0 C0.515625 0.2475 1.03125 0.495 1.5625 0.75 C-4.8375 4.81153846 -4.8375 4.81153846 -7.875 4.5 C-8.390625 4.2525 -8.90625 4.005 -9.4375 3.75 C-3.0375 -0.31153846 -3.0375 -0.31153846 0 0 Z " fill="#539C8F" transform="translate(49.4375,148.25)"/>
<path d="M0 0 C3.41021743 0.78697325 6.68885166 1.87119943 10 3 C10 3.66 10 4.32 10 5 C6.44219804 4.39009109 3.3171411 3.4216319 0 2 C0 1.34 0 0.68 0 0 Z " fill="#E3EFEE" transform="translate(65,146)"/>
</svg>
